Coordinates
version=1
nRows=11
nColumns=40
inDegrees=yes

Units are S.I. units (second, meters, Newtons, ...)
Angles are in degrees.

endheader
time	pelvis_tilt	pelvis_list	pelvis_rotation	pelvis_tx	pelvis_ty	pelvis_tz	hip_flexion_r	hip_adduction_r	hip_rotation_r	knee_angle_r	knee_angle_r_beta	ankle_angle_r	subtalar_angle_r	mtp_angle_r	hip_flexion_l	hip_adduction_l	hip_rotation_l	knee_angle_l	knee_angle_l_beta	ankle_angle_l	subtalar_angle_l	mtp_angle_l	lumbar_extension	lumbar_bending	lumbar_rotation	arm_flex_r	arm_add_r	arm_rot_r	elbow_flex_r	pro_sup_r	wrist_flex_r	wrist_dev_r	arm_flex_l	arm_add_l	arm_rot_l	elbow_flex_l	pro_sup_l	wrist_flex_l	wrist_dev_l
     39.27750000	     -8.31293623	     -6.46576652	      1.04968300	      1.06274537	      0.91130720	      0.44483924	      0.19245242	      0.57739492	    -14.14582341	     21.27631356	     21.27631356	     17.70187218	      8.50128399	     -7.28359427	     33.72140252	     -8.07729895	      2.38931521	     31.34407330	     31.34407330	      9.52859146	    -14.90321497	      9.57612090	     -9.64277537	      6.00779217	      5.94105924	     42.66063908	    -13.82292369	     -0.95179019	    112.32015286	     44.11757112	      0.00000000	      0.00000000	    -15.33087706	     -8.37674265	     14.49796889	     34.51976962	     43.83714558	      0.00000000	      0.00000000
     39.28914286	     -8.40845285	     -6.31893927	      1.02396317	      1.06248301	      0.91263786	      0.44184457	      1.20410514	     -0.21754893	    -14.01177016	     23.84090131	     23.84090131	     16.69975173	      7.83737510	     -8.82366742	     33.01816906	     -7.75716944	      2.20581657	     30.99682349	     30.99682349	      9.91251462	    -14.93633994	      9.57847632	     -9.51714325	      5.98244682	      5.91322456	     41.06980044	    -14.12403486	     -0.89933747	    112.35146614	     44.12033441	      0.00000000	      0.00000000	    -14.33329573	     -8.63109630	     14.10330993	     34.99428032	     43.92628586	      0.00000000	      0.00000000
     39.30078571	     -8.44824689	     -6.19083580	      0.98141620	      1.06224469	      0.91408994	      0.43902081	      2.11684164	     -0.87934951	    -13.53858968	     26.02101988	     26.02101988	     13.62884664	      5.99392109	    -15.43227475	     32.18880769	     -7.43892439	      2.14182566	     30.54208630	     30.54208630	     10.28368229	    -15.06700214	      9.59657732	     -9.50225595	      5.89402303	      6.49711022	     38.76264103	    -14.86564495	     -1.61335478	    113.31751906	     44.16228283	      0.00000000	      0.00000000	    -13.24401442	     -8.79089603	     12.20326815	     36.03075868	     44.29988099	      0.00000000	      0.00000000
     39.31242857	     -8.45130337	     -6.02236606	      0.93295607	      1.06174422	      0.91560230	      0.43622586	      3.46184934	     -1.73938400	    -13.18654731	     29.24221180	     29.24221180	     12.31666552	      5.02076918	    -16.31538592	     31.32687052	     -7.15666124	      1.81706214	     30.06183809	     30.06183809	     10.61440789	    -14.87109433	      9.49273161	     -9.50793085	      5.83537561	      6.27229376	     37.07446470	    -14.77468083	     -1.29237149	    112.50437378	     44.17594625	      0.00000000	      0.00000000	    -12.16319093	     -9.05241204	     11.88679147	     36.46193189	     44.36588517	      0.00000000	      0.00000000
     39.32407143	     -8.53689390	     -5.89773723	      0.88254298	      1.06097713	      0.91692427	      0.43354544	      5.15727277	     -2.51753186	    -12.61201857	     32.78141545	     32.78141545	     10.54426236	      3.52686448	    -17.42323498	     30.55240282	     -6.88977842	      1.59435679	     29.53058834	     29.53058834	     10.87908494	    -14.81441309	      9.40960558	     -9.44008778	      5.82468491	      6.21364728	     35.27305107	    -14.94882801	     -1.15090067	    111.54388032	     44.19991269	      0.00000000	      0.00000000	    -11.04217052	     -9.37146151	     11.36880697	     37.17490820	     44.45682862	      0.00000000	      0.00000000
     39.33571429	     -8.64687395	     -5.77412974	      0.79426525	      1.05996498	      0.91811739	      0.43103049	      7.10410887	     -3.23058225	    -11.83625409	     36.53170080	     36.53170080	      8.29915832	      1.53823574	    -18.58145176	     29.82379433	     -6.63968661	      1.36517992	     29.00565845	     29.00565845	     11.08585560	    -14.80993132	      9.32284447	     -9.38545908	      5.80499094	      6.24589087	     33.35182853	    -15.20307770	     -1.15314417	    110.37233092	     44.23501463	      0.00000000	      0.00000000	     -9.88775080	     -9.72496433	     10.66815825	     38.14500985	     44.56986767	      0.00000000	      0.00000000
     39.34735714	     -8.67790467	     -5.88261718	      0.72915190	      1.05882874	      0.91933999	      0.42885594	      8.94768793	     -3.34962031	    -10.56883924	     39.82375318	     39.82375318	      4.28293034	     -2.64798721	    -23.08342049	     29.06214363	     -6.62094171	      1.36154801	     28.50657569	     28.50657569	     11.15507251	    -14.88920613	      8.79424497	     -9.44461606	      5.95771917	      6.22176926	     31.47938104	    -15.06473295	     -2.02103259	    108.64872680	     44.34651454	      0.00000000	      0.00000000	     -9.43412872	     -9.83296738	      7.51135473	     41.01679277	     45.01770461	      0.00000000	      0.00000000
     39.35900000	     -8.71700887	     -5.67646693	      0.62889058	      1.05750536	      0.92028498	      0.42647924	     11.16951067	     -4.14415920	     -9.91605150	     43.90546513	     43.90546513	      1.81280314	     -4.32399734	    -22.91853659	     28.32489408	     -6.32281916	      1.03462206	     28.08450421	     28.08450421	     11.45327475	    -14.75012103	      8.66852509	     -9.52544232	      5.87384498	      6.16426826	     29.58079656	    -15.18422711	     -1.75159510	    107.15423941	     44.38171467	      0.00000000	      0.00000000	     -8.04447681	    -10.17933465	      6.92710650	     41.85469887	     45.11083699	      0.00000000	      0.00000000
     39.37064286	     -8.75174033	     -5.71024245	      0.51997402	      1.05598924	      0.92110302	      0.42450712	     13.48816854	     -4.33797805	     -8.84671731	     47.84418160	     47.84418160	     -0.89843547	     -7.15713593	    -21.97100217	     27.65375754	     -6.28358932	      0.88531596	     27.71622337	     27.71622337	     11.56433525	    -14.73788890	      8.07065643	     -9.57664981	      5.97352310	      5.58488285	     28.34378580	    -14.71835026	     -1.77811271	    103.70279811	     44.53780535	      0.00000000	      0.00000000	     -7.77648132	    -10.12744616	      3.22535080	     44.90474408	     45.60888972	      0.00000000	      0.00000000
     39.38228571	     -8.75177687	     -5.52444098	      0.36478463	      1.05440600	      0.92178813	      0.42256994	     15.84418617	     -4.84802584	     -8.01561126	     51.72481000	     51.72481000	     -3.47534669	     -9.25479000	    -20.85774493	     26.94670091	     -6.05002424	      0.53908807	     27.39512081	     27.39512081	     11.91111039	    -14.63040550	      7.94548140	     -9.71055332	      5.87278035	      5.72305452	     26.42153838	    -14.91547565	     -1.71402077	    101.81314420	     44.59159397	      0.00000000	      0.00000000	     -6.24893380	    -10.54686235	      2.75669108	     45.90949686	     45.68637031	      0.00000000	      0.00000000
     39.39392857	     -8.74606126	     -5.41541127	      0.16928127	      1.05276122	      0.92233538	      0.42085589	     18.20903039	     -5.09632667	     -7.10211308	     55.35859308	     55.35859308	     -5.81507007	    -11.61531595	    -19.03411615	     26.28492167	     -5.91837016	      0.23764992	     27.15847897	     27.15847897	     12.26800521	    -14.51134783	      7.76111994	     -9.82248688	      5.90363357	      5.99200913	     24.54576076	    -15.11123430	     -1.99744980	     99.25831962	     44.67764892	      0.00000000	      0.00000000	     -4.73413103	    -10.95231445	      2.18886082	     47.35378246	     45.77673478	      0.00000000	      0.00000000
